<svg width="190" height="125" viewBox="0 0 190 125" fill="none" xmlns="http://www.w3.org/2000/svg">
<g clip-path="url(#clip0_693_18952)">
<path d="M8.38912 114.773C9.19063 115.055 10.0512 115.126 10.8879 114.978C11.7246 114.831 12.5092 114.471 13.1662 113.932C14.8394 112.527 15.3641 110.214 15.7908 108.072L17.0534 101.735L14.4102 103.555C12.5092 104.864 10.5656 106.215 9.2495 108.111C7.93342 110.007 7.35926 112.595 8.41637 114.646" fill="#FFB8B8"/>
<path d="M8.79719 122.886C8.46451 120.463 8.12222 118.007 8.35614 115.558C8.56344 113.382 9.22723 111.257 10.5786 109.515C11.2959 108.591 12.1687 107.801 13.1578 107.177C13.4157 107.015 13.6531 107.423 13.3963 107.585C11.6848 108.667 10.3611 110.264 9.61583 112.146C8.79278 114.24 8.66063 116.522 8.80239 118.745C8.88809 120.09 9.07018 121.426 9.25306 122.76C9.2675 122.821 9.25848 122.884 9.22784 122.938C9.1972 122.992 9.14721 123.033 9.08799 123.051C9.02757 123.067 8.96317 123.059 8.90876 123.028C8.85435 122.997 8.81432 122.946 8.79736 122.886L8.79719 122.886Z" fill="#F2F2F2"/>
<path d="M11.1917 118.997C11.5353 119.52 12.0078 119.945 12.5636 120.232C13.1194 120.519 13.7397 120.658 14.3647 120.635C15.9714 120.559 17.3104 119.438 18.5155 118.374L22.081 115.226L19.7214 115.113C18.0244 115.031 16.2836 114.955 14.6673 115.479C13.051 116.003 11.5604 117.262 11.2649 118.935" fill="#FFB8B8"/>
<path d="M7.85676 124.28C9.45843 121.446 11.3161 118.296 14.6356 117.289C15.5586 117.01 16.5263 116.91 17.4868 116.995C17.7895 117.021 17.7139 117.488 17.4118 117.462C15.8018 117.328 14.1949 117.753 12.8617 118.665C11.5787 119.539 10.5797 120.753 9.73425 122.04C9.21632 122.829 8.75243 123.651 8.28853 124.472C8.1403 124.735 7.70681 124.545 7.85676 124.28Z" fill="#F2F2F2"/>
<path d="M119.639 64.4505H49.3596V124.311H119.639V64.4505Z" fill="white"/>
<path d="M119.843 124.515H49.1553V64.2462H119.843V124.515ZM49.5639 124.106H119.435V64.6548H49.5639V124.106Z" fill="#3F3D56"/>
<path d="M93.2842 76.0956H75.7144V124.311H93.2842V76.0956Z" fill="#F9A826"/>
<path d="M93.2842 76.0956H75.7144V124.311H93.2842V76.0956Z" fill="#F9A826"/>
<path opacity="0.2" d="M49.564 68.8429V78.555L119.639 83.0418L119.433 71.058L49.564 68.8429Z" fill="black"/>
<path d="M123.725 58.9343H45.2737V76.0956H123.725V58.9343Z" fill="white"/>
<path d="M123.93 76.2999H45.0693V58.73H123.93V76.2999ZM45.4779 75.8913H123.521V59.1387H45.4779V75.8913Z" fill="#3F3D56"/>
<path d="M93.2842 57.2999H75.7144V75.8913H93.2842V57.2999Z" fill="#F9A826"/>
<path d="M82.6182 41.0899C87.2561 47.965 82.8863 59.0225 82.8863 59.0225C82.8863 59.0225 70.9969 58.9334 66.359 52.0584C61.7211 45.1833 66.0909 34.1257 66.0909 34.1257C66.0909 34.1257 77.9802 34.2149 82.6182 41.0899Z" fill="#F9A826"/>
<path d="M84.7462 41.0899C80.1083 47.965 84.4781 59.0225 84.4781 59.0225C84.4781 59.0225 96.3674 58.9334 101.005 52.0584C105.643 45.1833 101.274 34.1257 101.274 34.1257C101.274 34.1257 89.3841 34.2149 84.7462 41.0899Z" fill="#F9A826"/>
<path d="M72.2413 46.2677C73.2568 46.2677 74.08 45.4445 74.08 44.429C74.08 43.4135 73.2568 42.5903 72.2413 42.5903C71.2258 42.5903 70.4026 43.4135 70.4026 44.429C70.4026 45.4445 71.2258 46.2677 72.2413 46.2677Z" fill="#3F3D56"/>
<path d="M83.2735 64.8591C84.289 64.8591 85.1122 64.0359 85.1122 63.0204C85.1122 62.0049 84.289 61.1817 83.2735 61.1817C82.258 61.1817 81.4348 62.0049 81.4348 63.0204C81.4348 64.0359 82.258 64.8591 83.2735 64.8591Z" fill="#3F3D56"/>
<path d="M83.2735 105.106C84.289 105.106 85.1122 104.283 85.1122 103.268C85.1122 102.252 84.289 101.429 83.2735 101.429C82.258 101.429 81.4348 102.252 81.4348 103.268C81.4348 104.283 82.258 105.106 83.2735 105.106Z" fill="#3F3D56"/>
<path d="M77.1445 52.3967C77.8215 52.3967 78.3703 51.8479 78.3703 51.1709C78.3703 50.4939 77.8215 49.9451 77.1445 49.9451C76.4675 49.9451 75.9187 50.4939 75.9187 51.1709C75.9187 51.8479 76.4675 52.3967 77.1445 52.3967Z" fill="#3F3D56"/>
<path d="M95.5317 41.9774C96.2087 41.9774 96.7575 41.4285 96.7575 40.7515C96.7575 40.0746 96.2087 39.5257 95.5317 39.5257C94.8547 39.5257 94.3059 40.0746 94.3059 40.7515C94.3059 41.4285 94.8547 41.9774 95.5317 41.9774Z" fill="#3F3D56"/>
<path d="M87.5639 70.7838C88.2409 70.7838 88.7897 70.235 88.7897 69.558C88.7897 68.881 88.2409 68.3322 87.5639 68.3322C86.8869 68.3322 86.3381 68.881 86.3381 69.558C86.3381 70.235 86.8869 70.7838 87.5639 70.7838Z" fill="#3F3D56"/>
<path d="M80.2092 86.7193C80.8862 86.7193 81.435 86.1705 81.435 85.4935C81.435 84.8165 80.8862 84.2677 80.2092 84.2677C79.5322 84.2677 78.9834 84.8165 78.9834 85.4935C78.9834 86.1705 79.5322 86.7193 80.2092 86.7193Z" fill="#3F3D56"/>
<path d="M86.5425 92.2354C87.2195 92.2354 87.7683 91.6866 87.7683 91.0096C87.7683 90.3326 87.2195 89.7838 86.5425 89.7838C85.8655 89.7838 85.3167 90.3326 85.3167 91.0096C85.3167 91.6866 85.8655 92.2354 86.5425 92.2354Z" fill="#3F3D56"/>
<path d="M85.1123 115.321C85.7893 115.321 86.3381 114.773 86.3381 114.096C86.3381 113.419 85.7893 112.87 85.1123 112.87C84.4353 112.87 83.8865 113.419 83.8865 114.096C83.8865 114.773 84.4353 115.321 85.1123 115.321Z" fill="#3F3D56"/>
<path d="M160.711 122.054L158.469 122.054L157.402 113.407L160.711 113.407L160.711 122.054Z" fill="#FFE4E6"/>
<path d="M161.282 124.227L154.053 124.227V124.135C154.054 123.389 154.35 122.674 154.878 122.146C155.405 121.618 156.121 121.322 156.867 121.322H156.867L161.282 121.322L161.282 124.227Z" fill="#2F2E41"/>
<path d="M166.186 122.054L168.428 122.054L169.494 113.407L166.186 113.407L166.186 122.054Z" fill="#FFE4E6"/>
<path d="M165.614 121.322L170.029 121.322H170.03C170.776 121.322 171.491 121.618 172.019 122.146C172.547 122.674 172.843 123.389 172.843 124.135V124.227L165.614 124.227L165.614 121.322Z" fill="#2F2E41"/>
<path d="M160.212 54.4784C161.175 52.5404 160.385 50.1887 158.447 49.2258C156.509 48.2629 154.157 49.0534 153.194 50.9914C152.231 52.9295 153.022 55.2812 154.96 56.2441C156.898 57.207 159.249 56.4165 160.212 54.4784Z" fill="#FFE4E6"/>
<path d="M153.818 79.6911C153.818 79.6911 152.58 84.8469 153.199 87.3217C153.818 89.7965 155.674 106.708 155.674 106.708L156.911 120.113L161.861 120.525L161.242 104.852L161.861 91.2402L165.367 104.439V120.159L170.616 120.366L170.729 99.9019C170.729 99.9019 171.141 83.8158 168.46 81.7535C165.779 79.6911 165.367 79.2787 165.367 79.2787L153.818 79.6911Z" fill="#2F2E41"/>
<path d="M161.29 57.0056L165.986 59.4803L166.604 80.9285C166.604 80.9285 163.923 79.2787 159.799 81.341C155.674 83.4033 152.993 81.9597 152.993 81.9597L155.468 72.6792L154.437 60.3053L155.911 58.9666L161.29 57.0056Z" fill="#CBCBCB"/>
<path d="M155.912 58.5762L155.055 59.2741C155.055 59.2741 149.693 61.9551 149.487 63.8112L153.199 73.9166C153.199 73.9166 154.23 76.1852 153.405 77.0101C152.58 77.835 151.755 79.8974 151.962 80.9285C152.168 81.9597 150.724 86.2906 152.374 86.2906C154.024 86.2906 157.942 76.3914 157.736 72.473C157.53 68.5546 157.387 58.2909 155.912 58.5762Z" fill="#2F2E41"/>
<path d="M159.517 57.2379L161.406 56.9236C161.406 56.9236 168.418 58.7797 169.449 61.8732L166.562 69.0913C166.562 69.0913 168.624 82.2902 168.005 82.2902H167.387C167.387 82.2902 169.036 83.5276 168.005 83.9401C166.974 84.3526 164.499 87.6523 163.881 86.2086C163.262 84.765 159.55 67.6477 159.962 63.9355C160.375 60.2233 159.151 57.6268 159.517 57.2379Z" fill="#2F2E41"/>
<path d="M160.337 48.8982L160.52 48.5288L159.597 48.07C159.597 48.07 158.578 46.4124 156.734 46.8782C154.891 47.3441 154.062 47.6228 154.062 47.6228L153.141 48.0863L153.603 48.5463L152.773 48.8251L153.328 49.1004L152.683 49.4709L153.03 51.3705C153.03 51.3705 153.606 49.9298 154.714 50.4803C155.823 51.0309 157.85 50.1957 157.85 50.1957L159.611 53.6038C159.611 53.6038 159.974 52.4091 160.622 52.7277C160.622 52.7277 162.276 50.0923 160.337 48.8982Z" fill="#2F2E41"/>
<path d="M166.073 85.0867C165.971 84.8379 165.925 84.5698 165.938 84.3013C165.951 84.0328 166.022 83.7704 166.148 83.5326C166.273 83.2947 166.449 83.0873 166.663 82.9248C166.877 82.7623 167.124 82.6488 167.387 82.5921L168.181 76.1059L170.768 78.3059L169.617 84.128C169.683 84.5758 169.582 85.0322 169.334 85.4107C169.086 85.7892 168.708 86.0635 168.271 86.1817C167.834 86.2999 167.369 86.2537 166.964 86.0519C166.559 85.85 166.242 85.5066 166.073 85.0867Z" fill="#FFE4E6"/>
<path d="M155.009 84.6404C155.084 84.3822 155.102 84.1107 155.06 83.8451C155.019 83.5795 154.92 83.3261 154.77 83.1029C154.62 82.8797 154.423 82.6921 154.193 82.5532C153.963 82.4144 153.705 82.3277 153.438 82.2992L151.961 75.9338L149.622 78.3956L151.383 84.0629C151.365 84.5152 151.514 84.9583 151.8 85.3084C152.087 85.6584 152.493 85.8911 152.94 85.9623C153.387 86.0335 153.844 85.9382 154.226 85.6946C154.607 85.4509 154.886 85.0758 155.009 84.6404H155.009Z" fill="#FFE4E6"/>
<path d="M166.172 60.1925C166.172 60.1925 168.854 59.1613 169.678 62.2548C170.503 65.3483 171.535 71.5353 171.535 71.5353C171.586 74.9757 171.403 74.9757 171.535 78.341L170.916 81.4345L167.41 81.022L167.563 73.147L165.76 65.1421L166.172 60.1925Z" fill="#2F2E41"/>
<path d="M151.343 62.5738L150.072 62.7098C150.072 62.7098 148.868 63.605 148.868 65.6673C148.868 67.7296 148.662 73.9166 148.662 73.9166C148.662 73.9166 148.545 74.0614 149.487 79.2787C149.946 81.8216 150.739 83.0217 150.739 83.0217L153.299 80.6444L152.993 74.5353L153.818 71.2356L151.343 62.5738Z" fill="#2F2E41"/>
<path d="M189.796 124.515H0.204301C0.150117 124.515 0.0981521 124.493 0.0598382 124.455C0.0215244 124.417 0 124.365 0 124.311C0 124.257 0.0215244 124.205 0.0598382 124.166C0.0981521 124.128 0.150117 124.106 0.204301 124.106H189.796C189.85 124.106 189.902 124.128 189.94 124.166C189.978 124.205 190 124.257 190 124.311C190 124.365 189.978 124.417 189.94 124.455C189.902 124.493 189.85 124.515 189.796 124.515Z" fill="#3F3D56"/>
<path d="M47.1219 63.7895C49.6073 63.7895 51.6222 61.7746 51.6222 59.2892C51.6222 56.8037 49.6073 54.7889 47.1219 54.7889C44.6364 54.7889 42.6216 56.8037 42.6216 59.2892C42.6216 61.7746 44.6364 63.7895 47.1219 63.7895Z" fill="#FFB8B8"/>
<path d="M45.4971 85.9183C45.4404 85.9183 45.3834 85.9158 45.3263 85.9107C45.0432 85.8871 44.7684 85.8039 44.5197 85.6667C44.2711 85.5294 44.0542 85.3412 43.8834 85.1143C43.7126 84.8874 43.5916 84.627 43.5284 84.35C43.4653 84.0731 43.4613 83.786 43.5169 83.5075C43.53 83.4428 43.5465 83.3788 43.5664 83.3158L36.9243 75.4603C36.7079 75.2023 36.5804 74.8814 36.5608 74.5452C36.5411 74.2091 36.6304 73.8755 36.8154 73.5941L36.8274 73.5795L42.8061 67.6843C43.1325 67.3625 43.5733 67.1835 44.0317 67.1867C44.49 67.19 44.9283 67.3752 45.2501 67.7015C45.5719 68.0279 45.7509 68.4688 45.7477 68.9271C45.7444 69.3855 45.5592 69.8238 45.2329 70.1456C45.2254 70.153 45.2178 70.1603 45.2102 70.1675L40.88 74.2841L45.6204 81.8924C45.7102 81.8971 45.7996 81.9081 45.8878 81.9253C46.3782 82.0232 46.8146 82.2998 47.1125 82.7014C47.4104 83.103 47.5484 83.601 47.4997 84.0986C47.451 84.5963 47.219 85.0581 46.849 85.3943C46.4789 85.7306 45.9971 85.9173 45.4971 85.9183H45.4971Z" fill="#FFB8B8"/>
<path d="M54.5336 121.922H56.7801L57.8486 113.258L54.5332 113.258L54.5336 121.922Z" fill="#FFB8B8"/>
<path d="M53.9607 121.189L58.3845 121.188H58.3847C59.1324 121.188 59.8495 121.485 60.3782 122.014C60.9069 122.543 61.2039 123.26 61.204 124.008V124.099L53.9608 124.1L53.9607 121.189Z" fill="#2F2E41"/>
<path d="M32.2063 118.816L34.1365 119.966L39.4876 113.068L36.639 111.371L32.2063 118.816Z" fill="#FFB8B8"/>
<path d="M32.0893 117.893L35.8904 120.156L35.8905 120.156C36.533 120.539 36.9971 121.161 37.1809 121.886C37.3647 122.61 37.2531 123.378 36.8706 124.021L36.8705 124.021L36.8236 124.1L30.6001 120.394L32.0893 117.893Z" fill="#2F2E41"/>
<path d="M57.3102 118.862H54.7948C54.5911 118.862 54.3945 118.787 54.2431 118.651C54.0916 118.514 53.9961 118.327 53.9749 118.124L51.439 94.2868C51.4326 94.2268 51.4066 94.1706 51.3651 94.1268C51.3236 94.083 51.2688 94.0541 51.2092 94.0446C51.1496 94.035 51.0886 94.0453 51.0354 94.0739C50.9823 94.1025 50.94 94.1478 50.9152 94.2028L46.3403 104.333L38.2409 117.54C38.136 117.709 37.9737 117.835 37.7837 117.895C37.5936 117.954 37.3885 117.943 37.2059 117.863L33.9702 116.44C33.8632 116.393 33.7675 116.323 33.6893 116.237C33.6111 116.15 33.5523 116.047 33.5168 115.936C33.4813 115.824 33.4698 115.707 33.4832 115.591C33.4966 115.474 33.5345 115.362 33.5945 115.262L41.0401 102.795L43.3236 92.2908C42.6054 87.7355 45.6843 80.963 45.7155 80.895L45.7308 80.8619L54.2117 77.5471L54.2542 77.5992C57.5989 88.575 59.6369 100.387 58.1321 118.106C58.1135 118.312 58.0191 118.503 57.8671 118.643C57.7151 118.782 57.5166 118.861 57.3102 118.862Z" fill="#2F2E41"/>
<path d="M45.3891 81.9719L45.3496 81.8888C45.3307 81.8491 43.4449 77.8717 41.9912 73.6208C41.7118 72.7987 41.6062 71.9276 41.6811 71.0626C41.7559 70.1976 42.0096 69.3576 42.426 68.5958C42.8478 67.826 43.4249 67.1523 44.1207 66.6173C44.8165 66.0822 45.6159 65.6975 46.4681 65.4875C47.9476 65.1329 49.5053 65.3216 50.8574 66.0192C52.2095 66.7168 53.2659 67.877 53.8343 69.2882C54.9874 72.1718 54.6199 75.2496 54.274 77.67L54.2671 77.7185L54.223 77.7397L45.3891 81.9719Z" fill="#F9A826"/>
<path d="M52.5783 56.7471H45.4324V53.6322C47.0008 53.0091 48.5356 52.4791 49.4634 53.6322C50.2895 53.6322 51.0818 53.9604 51.666 54.5445C52.2501 55.1287 52.5783 55.9209 52.5783 56.7471H52.5783Z" fill="#2F2E41"/>
<path d="M45.0366 53.0825C40.7646 53.0825 39.5688 58.4372 39.5688 61.4581C39.5688 63.1428 40.3308 63.7454 41.528 63.9493L41.9508 61.6943L42.9411 64.0463C43.2774 64.048 43.6308 64.0415 43.997 64.0347L44.3328 63.3433L45.0815 64.0223C48.0804 64.0268 50.5042 64.4639 50.5042 61.4581C50.5042 58.4372 49.4555 53.0825 45.0366 53.0825Z" fill="#2F2E41"/>
<path d="M64.0253 59.0755C64.0524 59.1252 64.0775 59.1764 64.1006 59.229C64.2155 59.4887 64.2743 59.7698 64.2731 60.0538C64.2718 60.3378 64.2106 60.6184 64.0934 60.8771C63.9762 61.1358 63.8056 61.3668 63.5929 61.555C63.3802 61.7432 63.1301 61.8843 62.859 61.9691C62.7959 61.9886 62.7319 62.0047 62.6671 62.0175L58.9577 71.6127C58.8351 71.9263 58.6146 72.192 58.329 72.3704C58.0434 72.5488 57.7079 72.6304 57.3723 72.603L57.3536 72.5995L49.3138 70.1791C48.8753 70.0466 48.5073 69.7455 48.2908 69.3418C48.0742 68.9382 48.0268 68.4651 48.1589 68.0265C48.2909 67.5879 48.5917 67.2196 48.9952 67.0027C49.3986 66.7857 49.8717 66.7378 50.3104 66.8695C50.3204 66.8725 50.3304 66.8756 50.3404 66.8788L56.029 68.7052L60.4332 60.8974C60.3942 60.8163 60.361 60.7326 60.3339 60.6469C60.1847 60.1697 60.2181 59.6541 60.4278 59.2001C60.6374 58.7462 61.0083 58.3864 61.4684 58.1905C61.9284 57.9947 62.4448 57.9768 62.9173 58.1403C63.3899 58.3039 63.7847 58.6372 64.0253 59.0755L64.0253 59.0755Z" fill="#FFB8B8"/>
<path d="M135.496 34.7043C132.491 30.6822 126.99 29.7115 124.256 31.7541C121.523 33.7967 120.895 39.3471 123.901 43.3692C126.683 47.0922 131.723 48.1075 134.499 46.7127C134.49 46.7563 134.489 46.8011 134.497 46.8449L134.654 47.6187C134.666 47.6777 134.693 47.7326 134.732 47.7783C134.771 47.824 134.821 47.859 134.877 47.8798C134.934 47.9007 134.995 47.9068 135.054 47.8975C135.114 47.8883 135.17 47.8639 135.217 47.8269L136.543 46.7914C136.59 46.7544 136.627 46.7058 136.651 46.6504C136.674 46.5949 136.683 46.5344 136.676 46.4746C136.67 46.4148 136.648 46.3576 136.613 46.3086C136.578 46.2595 136.531 46.2202 136.477 46.1944L135.764 45.8553C135.739 45.844 135.713 45.8357 135.686 45.8307C137.825 43.5684 138.284 38.4354 135.496 34.7043Z" fill="#FFB8B8"/>
<path d="M128.922 33.1858C130.392 33.4193 131.717 34.2084 132.622 35.3901C133.527 36.5719 133.944 38.0561 133.787 39.5364C133.755 39.8755 134.284 39.8732 134.316 39.5364C134.468 37.9408 134.011 36.347 133.036 35.0745C132.062 33.802 130.643 32.9449 129.063 32.6751C128.729 32.6184 128.586 33.1287 128.922 33.1858Z" fill="white"/>
<path d="M35.1803 39.749C37.8079 35.4704 36.6783 30 33.7705 28.2143C30.8628 26.4285 25.4729 27.895 22.8452 32.1735C20.413 36.1338 21.3311 41.1927 23.6526 43.2574C23.6088 43.2652 23.5669 43.2812 23.5292 43.3047L22.8679 43.736C22.8175 43.7689 22.7763 43.8141 22.7483 43.8673C22.7203 43.9206 22.7063 43.9801 22.7078 44.0403C22.7093 44.1005 22.7261 44.1592 22.7567 44.2111C22.7872 44.2629 22.8306 44.3061 22.8825 44.3365L24.3343 45.1857C24.3862 45.2161 24.4451 45.2327 24.5052 45.234C24.5654 45.2352 24.6249 45.2211 24.6781 45.1928C24.7312 45.1646 24.7763 45.1233 24.809 45.0728C24.8417 45.0222 24.8609 44.9642 24.8649 44.9041L24.9166 44.1164C24.9179 44.0889 24.9158 44.0614 24.9106 44.0344C27.8032 45.1874 32.7428 43.7179 35.1803 39.749Z" fill="#FFB8B8"/>
<path d="M34.1631 33.0787C34.4891 34.5312 34.245 36.0535 33.4812 37.3312C32.7173 38.6089 31.4921 39.5446 30.0584 39.9452C29.7313 40.0404 29.929 40.5319 30.2539 40.4373C31.7926 39.9889 33.1049 38.9753 33.9276 37.5998C34.7502 36.2244 35.0225 34.5887 34.6897 33.021C34.6192 32.6902 34.0921 32.7456 34.1631 33.0787Z" fill="white"/>
<path d="M166.56 8.77004C166.34 3.75384 162.34 -0.145178 158.931 0.00414967C155.522 0.153477 151.878 4.3873 152.098 9.4035C152.301 14.0466 155.895 17.7233 158.975 18.1333C158.943 18.1643 158.917 18.2011 158.899 18.2417L158.593 18.9693C158.57 19.0248 158.561 19.0853 158.567 19.1451C158.574 19.2049 158.596 19.262 158.631 19.3111C158.666 19.3601 158.713 19.3994 158.767 19.4252C158.821 19.451 158.881 19.4625 158.941 19.4586L160.62 19.3489C160.68 19.345 160.738 19.3258 160.788 19.2931C160.839 19.2605 160.88 19.2154 160.909 19.1623C160.937 19.1091 160.951 19.0497 160.95 18.9895C160.949 18.9293 160.932 18.8705 160.902 18.8185L160.503 18.1369C160.489 18.1134 160.472 18.0918 160.452 18.0724C163.494 17.4073 166.763 13.4232 166.56 8.77004Z" fill="#F9A826"/>
<path d="M161.981 3.81394C163.065 4.83463 163.715 6.23239 163.798 7.71872C163.881 9.20504 163.39 10.6665 162.426 11.8013C162.209 12.0634 162.648 12.3598 162.864 12.0995C163.888 10.8661 164.407 9.29144 164.318 7.69121C164.229 6.09097 163.539 4.58351 162.385 3.47113C162.141 3.23663 161.735 3.5777 161.981 3.81394Z" fill="white"/>
<path d="M135.201 23.2513C133.887 23.1685 132.612 22.7755 131.479 22.1045C130.346 21.4335 129.388 20.5035 128.684 19.3909C128.487 19.0755 128.229 18.7289 128.366 18.3406C128.413 18.1918 128.51 18.0634 128.64 17.9766C128.77 17.8898 128.926 17.8497 129.081 17.8628C129.484 17.9118 129.744 18.3057 129.793 18.6832C129.85 19.1114 129.548 19.4475 129.175 19.6066C128.263 19.9954 127.344 19.3946 126.601 18.9151C124.91 17.8226 123.049 16.8345 121 16.71C119.103 16.5948 117.07 17.3384 116.015 18.983C115.83 19.2707 116.288 19.5365 116.472 19.2502C117.518 17.6192 119.633 17.0334 121.472 17.2855C122.568 17.4585 123.626 17.8177 124.6 18.3477C125.106 18.61 125.596 18.9007 126.076 19.2064C126.533 19.5253 127.018 19.803 127.524 20.0362C128.368 20.383 129.485 20.3559 130.075 19.5576C130.625 18.8128 130.2 17.5729 129.28 17.3635C129.078 17.3237 128.869 17.3346 128.673 17.3953C128.476 17.4559 128.298 17.5644 128.154 17.711C128.009 17.8575 127.904 18.0376 127.846 18.2351C127.788 18.4326 127.781 18.6413 127.824 18.8424C127.915 19.281 128.246 19.7102 128.501 20.0687C129.269 21.1492 130.27 22.0436 131.43 22.686C132.589 23.3285 133.878 23.7026 135.201 23.7809C135.542 23.7978 135.541 23.2681 135.201 23.2513H135.201Z" fill="#FFB8B8"/>
</g>
<defs>
<clipPath id="clip0_693_18952">
<rect width="190" height="124.598" fill="white"/>
</clipPath>
</defs>
</svg>
