<svg width="32" height="32" viewBox="0 0 32 32" fill="none" xmlns="http://www.w3.org/2000/svg">
<rect width="32" height="32" rx="6" fill="#16A034"/>
<path d="M11 16L15.2857 19.5714L21 12.4286M16 26C14.6868 26 13.3864 25.7413 12.1732 25.2388C10.9599 24.7362 9.85752 23.9997 8.92893 23.0711C8.00035 22.1425 7.26375 21.0401 6.7612 19.8268C6.25866 18.6136 6 17.3132 6 16C6 14.6868 6.25866 13.3864 6.7612 12.1732C7.26375 10.9599 8.00035 9.85752 8.92893 8.92893C9.85752 8.00035 10.9599 7.26375 12.1732 6.7612C13.3864 6.25866 14.6868 6 16 6C18.6522 6 21.1957 7.05357 23.0711 8.92893C24.9464 10.8043 26 13.3478 26 16C26 18.6522 24.9464 21.1957 23.0711 23.0711C21.1957 24.9464 18.6522 26 16 26Z" stroke="white"/>
</svg>
