<svg width="32" height="32" viewBox="0 0 32 32" fill="none" xmlns="http://www.w3.org/2000/svg">
<rect width="32" height="32" rx="6" fill="#FF6870"/>
<path d="M15.325 17.175H16.825V10.85H15.325V17.175ZM16 21C16.2333 21 16.4292 20.9208 16.5875 20.7625C16.7458 20.6042 16.825 20.4083 16.825 20.175C16.825 19.9417 16.7458 19.7458 16.5875 19.5875C16.4292 19.4292 16.2333 19.35 16 19.35C15.7667 19.35 15.5708 19.4292 15.4125 19.5875C15.2542 19.7458 15.175 19.9417 15.175 20.175C15.175 20.4083 15.2542 20.6042 15.4125 20.7625C15.5708 20.9208 15.7667 21 16 21ZM16 26C14.5833 26 13.2667 25.7458 12.05 25.2375C10.8333 24.7292 9.775 24.025 8.875 23.125C7.975 22.225 7.27083 21.1667 6.7625 19.95C6.25417 18.7333 6 17.4167 6 16C6 14.6 6.25417 13.2917 6.7625 12.075C7.27083 10.8583 7.975 9.8 8.875 8.9C9.775 8 10.8333 7.29167 12.05 6.775C13.2667 6.25833 14.5833 6 16 6C17.4 6 18.7083 6.25833 19.925 6.775C21.1417 7.29167 22.2 8 23.1 8.9C24 9.8 24.7083 10.8583 25.225 12.075C25.7417 13.2917 26 14.6 26 16C26 17.4167 25.7417 18.7333 25.225 19.95C24.7083 21.1667 24 22.225 23.1 23.125C22.2 24.025 21.1417 24.7292 19.925 25.2375C18.7083 25.7458 17.4 26 16 26ZM16 24.5C18.3333 24.5 20.3333 23.6667 22 22C23.6667 20.3333 24.5 18.3333 24.5 16C24.5 13.6667 23.6667 11.6667 22 10C20.3333 8.33333 18.3333 7.5 16 7.5C13.6667 7.5 11.6667 8.33333 10 10C8.33333 11.6667 7.5 13.6667 7.5 16C7.5 18.3333 8.33333 20.3333 10 22C11.6667 23.6667 13.6667 24.5 16 24.5Z" fill="white"/>
</svg>
