<svg width="112" height="23" viewBox="0 0 112 23" fill="none" xmlns="http://www.w3.org/2000/svg">
<path d="M0.136 22V0.879999H15.432V3.824H3.56V9.904H12.84V12.784H3.56V19.056H15.88V22H0.136ZM37.3118 0.879999V13.904C37.3118 16.6987 36.5758 18.8 35.1038 20.208C33.6318 21.616 31.4878 22.32 28.6718 22.32C25.8984 22.32 23.7651 21.616 22.2718 20.208C20.7998 18.8 20.0638 16.6987 20.0638 13.904V0.879999H23.4878V13.488C23.4878 15.472 23.9144 16.944 24.7678 17.904C25.6211 18.864 26.9224 19.344 28.6718 19.344C30.4424 19.344 31.7544 18.864 32.6078 17.904C33.4611 16.944 33.8878 15.472 33.8878 13.488V0.879999H37.3118ZM60.6713 16.4C60.2446 17.68 59.6046 18.768 58.7513 19.664C57.8979 20.5387 56.8953 21.2 55.7433 21.648C54.5913 22.096 53.3219 22.32 51.9353 22.32C49.9086 22.32 48.1486 21.8827 46.6553 21.008C45.1619 20.1333 44.0099 18.8853 43.1993 17.264C42.3886 15.6427 41.9833 13.7013 41.9833 11.44C41.9833 9.17867 42.3886 7.23733 43.1993 5.616C44.0099 3.99467 45.1619 2.74667 46.6553 1.872C48.1486 0.997333 49.8979 0.559999 51.9033 0.559999C53.2899 0.559999 54.5379 0.752 55.6473 1.136C56.7779 1.52 57.7379 2.096 58.5273 2.864C59.3166 3.632 59.9246 4.592 60.3513 5.744L57.1193 7.184C56.6926 5.92533 56.0739 5.008 55.2633 4.432C54.4526 3.83467 53.3966 3.536 52.0953 3.536C50.7939 3.536 49.6526 3.84533 48.6713 4.464C47.6899 5.08267 46.9219 5.97867 46.3673 7.152C45.8339 8.32533 45.5673 9.75467 45.5673 11.44C45.5673 13.104 45.8233 14.5333 46.3353 15.728C46.8473 16.9013 47.5833 17.7973 48.5433 18.416C49.5033 19.0347 50.6553 19.344 51.9993 19.344C53.3006 19.344 54.4206 19.0133 55.3593 18.352C56.3193 17.6693 57.0019 16.656 57.4073 15.312L60.6713 16.4ZM68.4663 19.056H80.1143V22H65.0423V0.879999H68.4663V19.056ZM87.6225 0.879999V22H84.1985V0.879999H87.6225ZM101.342 0.879999C104.649 0.879999 107.219 1.79733 109.054 3.632C110.91 5.44533 111.838 8.048 111.838 11.44C111.838 14.832 110.91 17.4453 109.054 19.28C107.219 21.0933 104.649 22 101.342 22H93.886V0.879999H101.342ZM101.342 19.088C103.582 19.088 105.289 18.4267 106.462 17.104C107.657 15.76 108.254 13.872 108.254 11.44C108.254 9.008 107.657 7.13067 106.462 5.808C105.289 4.464 103.582 3.792 101.342 3.792H97.31V19.088H101.342Z" fill="#005585"/>
</svg>
