<svg width="42" height="35" viewBox="0 0 42 35" fill="none" xmlns="http://www.w3.org/2000/svg">
<path d="M37.7112 15.7075C39.1951 16.4418 39.1951 18.5582 37.7112 19.2925L13.5954 31.2267C12.2661 31.8846 10.7084 30.9174 10.7084 29.4342L10.7084 5.5658C10.7084 4.08262 12.2661 3.11545 13.5954 3.77328L37.7112 15.7075Z" fill="#005585"/>
<path d="M21.1965 11C21.4726 11 21.6965 11.2239 21.6965 11.5V16.3036C21.6965 16.5797 21.9203 16.8036 22.1965 16.8036H27.0001C27.2762 16.8036 27.5001 17.0274 27.5001 17.3036V17.6964C27.5001 17.9726 27.2762 18.1964 27.0001 18.1964H22.1965C21.9203 18.1964 21.6965 18.4203 21.6965 18.6964V23.5C21.6965 23.7761 21.4726 24 21.1965 24H20.8036C20.5275 24 20.3036 23.7761 20.3036 23.5V18.6964C20.3036 18.4203 20.0798 18.1964 19.8036 18.1964H15.0001C14.7239 18.1964 14.5001 17.9726 14.5001 17.6964V17.3036C14.5001 17.0274 14.7239 16.8036 15.0001 16.8036H19.8036C20.0798 16.8036 20.3036 16.5797 20.3036 16.3036V11.5C20.3036 11.2239 20.5275 11 20.8036 11H21.1965Z" fill="white"/>
</svg>
