<svg width="32" height="30" viewBox="0 0 32 30" fill="none" xmlns="http://www.w3.org/2000/svg">
<rect width="32" height="29.2727" rx="6" fill="#FAAD14"/>
<path d="M6 23.2727L16 6L26 23.2727H6ZM15.4091 18.0909H16.7727V13H15.4091V18.0909ZM16.0909 20.6136C16.2879 20.6136 16.4508 20.5492 16.5795 20.4205C16.7083 20.2917 16.7727 20.1288 16.7727 19.9318C16.7727 19.7348 16.7083 19.572 16.5795 19.4432C16.4508 19.3144 16.2879 19.25 16.0909 19.25C15.8939 19.25 15.7311 19.3144 15.6023 19.4432C15.4735 19.572 15.4091 19.7348 15.4091 19.9318C15.4091 20.1288 15.4735 20.2917 15.6023 20.4205C15.7311 20.5492 15.8939 20.6136 16.0909 20.6136ZM8.36364 21.9091H23.6364L16 8.72727L8.36364 21.9091Z" fill="white"/>
</svg>
