<svg width="16" height="16" viewBox="0 0 16 16" fill="none" xmlns="http://www.w3.org/2000/svg">
<rect width="16" height="16" rx="8" fill="#595959"/>
<path d="M8.34805 8.91899L5.49334 11.7737C5.41177 11.8553 5.31662 11.896 5.20786 11.896C5.09911 11.896 5.00396 11.8553 4.92239 11.7737C4.84083 11.6921 4.80005 11.597 4.80005 11.4882C4.80005 11.3795 4.84083 11.2843 4.92239 11.2028L7.77711 8.34805L4.92239 5.49334C4.84083 5.41177 4.80005 5.31662 4.80005 5.20786C4.80005 5.09911 4.84083 5.00396 4.92239 4.92239C5.00396 4.84083 5.09911 4.80005 5.20786 4.80005C5.31662 4.80005 5.41177 4.84083 5.49334 4.92239L8.34805 7.77711L11.2028 4.92239C11.2843 4.84083 11.3795 4.80005 11.4882 4.80005C11.597 4.80005 11.6921 4.84083 11.7737 4.92239C11.8553 5.00396 11.896 5.09911 11.896 5.20786C11.896 5.31662 11.8553 5.41177 11.7737 5.49334L8.91899 8.34805L11.7737 11.2028C11.8553 11.2843 11.896 11.3795 11.896 11.4882C11.896 11.597 11.8553 11.6921 11.7737 11.7737C11.6921 11.8553 11.597 11.896 11.4882 11.896C11.3795 11.896 11.2843 11.8553 11.2028 11.7737L8.34805 8.91899Z" fill="#DAEAF3"/>
</svg>
