<svg width="42" height="35" viewBox="0 0 42 35" fill="none" xmlns="http://www.w3.org/2000/svg">
<path d="M4.28887 19.2925C2.80496 18.5582 2.80496 16.4418 4.28887 15.7075L28.4046 3.77328C29.7339 3.11545 31.2917 4.08262 31.2917 5.5658L31.2917 29.4342C31.2917 30.9174 29.7339 31.8846 28.4046 31.2267L4.28887 19.2925Z" fill="#005585"/>
<path d="M21.9703 24C21.6941 24 21.4703 23.7761 21.4703 23.5V18.6964C21.4703 18.4203 21.2464 18.1964 20.9703 18.1964H16.1667C15.8905 18.1964 15.6667 17.9726 15.6667 17.6964V17.3036C15.6667 17.0274 15.8905 16.8036 16.1667 16.8036H20.9703C21.2464 16.8036 21.4703 16.5797 21.4703 16.3036V11.5C21.4703 11.2239 21.6941 11 21.9703 11H22.3631C22.6393 11 22.8631 11.2239 22.8631 11.5V16.3036C22.8631 16.5797 23.087 16.8036 23.3631 16.8036H28.1667C28.4428 16.8036 28.6667 17.0274 28.6667 17.3036V17.6964C28.6667 17.9726 28.4428 18.1964 28.1667 18.1964H23.3631C23.087 18.1964 22.8631 18.4203 22.8631 18.6964V23.5C22.8631 23.7761 22.6393 24 22.3631 24H21.9703Z" fill="white"/>
</svg>
